<svg id="Capa_1" enable-background="new 0 0 512 512" height="512" viewBox="0 0 512 512" width="512" xmlns="http://www.w3.org/2000/svg"><g><g><path d="m256 210c-57.891 0-105-47.109-105-105s47.109-105 105-105 105 47.109 105 105-47.109 105-105 105z" fill="#a5e887"/></g><path d="m361 105c0-57.891-47.109-105-105-105v210c57.891 0 105-47.109 105-105z" fill="#00cc76"/><g id="Social_Distancing_7_"><path d="m317 233.789-21.211 21.211 15 15h-109.578l15-15-21.211-21.211-51.211 51.211 51.211 51.211 21.211-21.211-15-15h109.578l-15 15 21.211 21.211 51.211-51.211z" fill="#0b799d"/><g><g><path d="m241 156.211-40.605-40.606 21.21-21.21 19.395 19.394 49.395-49.394 21.21 21.21z" fill="#fff5f5"/></g></g></g><path d="m256 141.211 55.605-55.606-21.21-21.21-34.395 34.394z" fill="#e1ebf0"/><path d="m317 336.211 51.211-51.211-51.211-51.211-21.211 21.211 15 15h-54.789v30h54.789l-15 15z" fill="#07485e"/><g><path d="m75 330c-24.814 0-45-20.186-45-45s20.186-45 45-45 45 20.186 45 45-20.186 45-45 45z" fill="#ffd4c4"/></g><g><path d="m150 512h-150v-107c0-41.353 33.633-75 75-75s75 33.647 75 75z" fill="#5ecef4"/></g><path d="m150 512v-107c0-41.353-33.633-75-75-75v182z" fill="#4895ff"/><path d="m120 285c0-24.814-20.186-45-45-45v90c24.814 0 45-20.186 45-45z" fill="#ffbea4"/><g><path d="m437 330c-24.814 0-45-20.186-45-45s20.186-45 45-45 45 20.186 45 45-20.186 45-45 45z" fill="#ffd4c4"/></g><g><g><path d="m512 512h-150v-107c0-41.353 33.633-75 75-75s75 33.647 75 75z" fill="#ffb655"/></g></g><path d="m512 512v-107c0-41.353-33.633-75-75-75v182z" fill="#ff7c48"/><path d="m482 285c0-24.814-20.186-45-45-45v90c24.814 0 45-20.186 45-45z" fill="#ffbea4"/></g></svg>