<svg id="Layer_1" enable-background="new 0 0 512.001 512.001" height="512" viewBox="0 0 512.001 512.001" width="512" xmlns="http://www.w3.org/2000/svg"><g><g clip-rule="evenodd" fill-rule="evenodd"><path d="m215.001 257.634v63.217c4.093-2.597 8.927-4.075 14.035-4.075 6.052 0 11.626 2.052 16.062 5.497-8.573-31.994 16.186-55.72 43.275-55.72 2.944 0 5.826.259 8.627.757v-117.825-99.485h-82v99.485 108.149z" fill="#99ebfa"/><path d="m215.001 50h82 19v-40h-120v40z" fill="#e8eaf0"/><path d="m215.001 257.634c-25.809 0-46.539 19.952-46.773 44.687-23.556 6.66-41.245 27.292-43.55 52.378-.169 1.838-.255 3.699-.255 5.581 0 33.262 26.963 60.225 60.225 60.225 21.631 0 40.595-11.406 51.214-28.529 6.158 2.792 12.968 4.4 20.138 4.533.321.006.643.009.965.009 5.487 0 10.771-.867 15.726-2.467 6.44 20.887 25.895 36.067 48.896 36.067 28.255 0 51.16-22.905 51.16-51.161 0-5.679-.925-11.142-2.633-16.246-5.354-15.999-18.399-28.473-34.745-33.034 1.333-4.458 2.053-9.181 2.053-14.073 0-24.146-17.447-44.217-40.423-48.294-2.801-.497-5.684-.756-8.627-.756-27.09 0-51.848 23.725-43.275 55.72-4.436-3.446-10.009-5.497-16.062-5.497-5.108 0-9.942 1.478-14.035 4.075v-63.218z" fill="#cff5fd"/><g fill="#ffdcd5"><path d="m124.423 360.28c0-1.882.086-3.743.258-5.581-30.008-11.971-63.683-17.294-69.642-27.614-1.845-9.686-3.394-24.766-4.039-34.693-.73-11.251-9.225-20.5-20.499-20.5s-20.5 9.225-20.5 20.5v67.188c0 11.275 4.484 18.68 12.684 25.444l69.317 65.626v51.35h327.998v-51.35l69.317-65.626c8.2-6.765 12.684-14.17 12.684-25.444v-67.188c0-11.275-9.227-20.5-20.5-20.5-11.274 0-19.769 9.249-20.499 20.5-.645 9.927-2.194 25.006-4.039 34.693-7.142 12.37-54.113 17.558-86.846 35.626 1.708 5.104 2.633 10.567 2.633 16.246 0 28.255-22.905 51.161-51.16 51.161-23.001 0-42.456-15.179-48.896-36.067-4.955 1.599-10.239 2.467-15.726 2.467-.322 0-.644-.003-.965-.009-7.171-.133-13.98-1.741-20.138-4.533-10.62 17.123-29.583 28.529-51.214 28.529-33.264 0-60.228-26.963-60.228-60.225z"/><path d="m124.678 354.699c2.305-25.086 19.995-45.718 43.55-52.378.233-24.736 20.964-44.687 46.773-44.687v-108.149c-.012-11.265-9.232-20.478-20.5-20.478-11.275 0-20.5 9.225-20.5 20.5v-20.501c0-11.275-9.225-20.5-20.5-20.5s-20.5 9.225-20.5 20.5v20.501c0-11.276-9.225-20.5-20.5-20.5s-20.5 9.224-20.5 20.5v194.21c10.373 3.156 21.769 6.63 32.677 10.982z"/><path d="m297.001 149.485v117.825c22.975 4.077 40.423 24.147 40.423 48.294 0 4.892-.719 9.615-2.053 14.073 16.346 4.562 29.391 17.036 34.745 33.034 15.356-8.476 33.844-14.117 49.884-18.996v-194.208c0-11.276-9.225-20.5-20.5-20.5s-20.5 9.224-20.5 20.5v-20.501c0-11.275-9.225-20.5-20.5-20.5s-20.5 9.225-20.5 20.5v20.501c0-11.275-9.225-20.5-20.5-20.5-11.267.001-20.487 9.213-20.499 20.478z"/></g></g><g><path d="m481.501 261.893c-16.271 0-29.375 12.834-30.479 29.852-.584 9-1.918 22.001-3.441 31.004-2.737 2.201-9.88 4.861-17.58 7.377v-180.619c0-16.817-13.683-30.5-30.501-30.5-4.064 0-7.947.799-11.496 2.249-3.438-13.076-15.362-22.75-29.503-22.75s-26.065 9.674-29.503 22.75c-3.55-1.45-7.433-2.25-11.497-2.25-3.688 0-7.225.659-10.5 1.865v-60.871h9c5.522 0 10-4.477 10-10v-40c0-5.523-4.478-10-10-10h-120c-5.522 0-10 4.477-10 10v40c0 5.523 4.478 10 10 10h9.001v60.872c-3.276-1.206-6.813-1.865-10.5-1.865-4.064 0-7.947.8-11.497 2.25-3.438-13.077-15.362-22.75-29.503-22.75s-26.065 9.674-29.503 22.75c-3.55-1.45-7.433-2.25-11.497-2.25-16.817 0-30.5 13.682-30.5 30.5v180.62c-7.701-2.517-14.843-5.177-17.58-7.378-1.523-9.003-2.857-22.004-3.441-31.005-1.105-17.019-14.208-29.852-30.479-29.852-16.818 0-30.501 13.682-30.501 30.5v67.188c0 13.325 5.101 23.798 16.045 32.93l65.956 62.444v47.046c0 5.523 4.478 10 10 10h327.998c5.522 0 10-4.477 10-10v-47.046l65.955-62.443c10.945-9.132 16.046-19.605 16.046-32.931v-67.188c0-16.817-13.683-30.499-30.5-30.499zm-133.5-132.887c0-5.79 4.71-10.5 10.5-10.5s10.5 4.71 10.5 10.5v20.501 128.815c0 5.523 4.478 10 10 10s10-4.477 10-10v-128.815c0-5.79 4.71-10.5 10.499-10.5 5.79 0 10.501 4.71 10.501 10.5v186.81c-11.482 3.547-23.639 7.581-35.063 12.817-6.29-11.224-16.04-20.39-28.012-25.852.331-2.539.498-5.103.498-7.678 0-9.974-2.495-19.373-6.879-27.621 4.289-1.127 7.457-5.019 7.457-9.661v-128.815-20.501zm-91.034 257.512c-5.922 0-11.633-1.228-16.974-3.649-4.578-2.075-9.979-.434-12.628 3.836-9.243 14.903-25.212 23.8-42.717 23.8-27.694 0-50.225-22.531-50.225-50.225 0-22.379 15.021-42.255 36.526-48.336 4.272-1.208 7.237-5.089 7.279-9.529.151-16.031 11.344-29.393 26.772-33.488v47c-5.171 4.589-9.058 10.665-10.938 17.686-1.43 5.335 1.736 10.818 7.071 12.248 5.341 1.429 10.819-1.737 12.247-7.072 1.895-7.073 8.333-12.013 15.655-12.013 8.937 0 16.207 7.271 16.207 16.208 0 5.523 4.478 10 10 10s10-4.477 10-10c0-10.237-4.277-19.489-11.131-26.081-2.48-12.464 1.654-21.295 5.744-26.625 6.594-8.594 17.254-13.724 28.517-13.724 21.532 0 39.05 17.518 39.05 39.05 0 3.812-.55 7.583-1.634 11.208-.769 2.571-.472 5.344.824 7.694 1.297 2.351 3.483 4.081 6.068 4.802 17.703 4.941 30.067 21.245 30.067 39.648 0 22.696-18.465 41.161-41.161 41.161-18.18 0-33.989-11.66-39.341-29.013-.788-2.556-2.567-4.69-4.939-5.925-2.374-1.235-5.142-1.467-7.688-.646-4.075 1.318-8.333 1.985-12.651 1.985zm60.534-247.51c5.79 0 10.5 4.71 10.5 10.5v122.357c-6.006-5.447-13.142-9.662-21-12.282v-110.087c.006-5.783 4.717-10.488 10.5-10.488zm-111.5-119.008h100v20h-100zm40 40v21.578c0 5.523 4.478 10 10 10s10-4.477 10-10v-21.578h21v196.593c-16.932.411-32.93 8.372-43.011 21.509-6.503 8.475-10.055 18.403-10.543 28.952-1.447-.177-2.917-.278-4.41-.278-1.361 0-2.706.083-4.035.232v-247.008zm-51.499 79.008c5.783 0 10.493 4.705 10.5 10.489v98.989c-7.656 1.301-14.758 4.067-21 7.995v-106.974c0-5.789 4.71-10.499 10.5-10.499zm-92.5 10.499c0-5.79 4.71-10.5 10.5-10.5s10.5 4.71 10.5 10.5v73.815c0 5.523 4.478 10 10 10s10-4.477 10-10v-73.815-20.501c0-5.79 4.71-10.5 10.5-10.5s10.5 4.71 10.5 10.5v20.501 128.815c0 .015.002.029.002.043-2.587 5.132-4.383 10.716-5.226 16.612-20.443 8.114-35.785 25.454-41.693 46.26-5.11-1.77-10.198-3.409-15.083-4.919zm0 342.494v-41.35c0-2.747-1.13-5.373-3.125-7.262l-69.317-65.626c-.165-.156-.336-.307-.511-.452-6.596-5.441-9.048-10.247-9.048-17.73v-67.188c0-5.79 4.711-10.5 10.501-10.5 6.363 0 10.169 5.744 10.52 11.148.659 10.15 2.253 25.72 4.195 35.916.209 1.101.603 2.159 1.163 3.13 5.749 9.957 21.154 14.643 42.477 21.127 8.027 2.442 16.949 5.162 25.599 8.302.664 38.152 31.886 68.989 70.193 68.989 21.691 0 41.692-9.766 54.952-26.485 2.105.624 4.24 1.131 6.4 1.522v86.459zm389.999-132.42c0 7.484-2.452 12.29-9.047 17.73-.176.145-.347.295-.512.452l-69.317 65.626c-1.995 1.889-3.125 4.515-3.125 7.262v41.35h-143.999v-86.158c.193-.029.388-.05.581-.08 10.102 20.876 31.186 34.355 55.007 34.355 33.725 0 61.161-27.437 61.161-61.161 0-3.72-.343-7.381-.997-10.951 13.084-6.178 28.003-10.723 41.397-14.796 21.319-6.483 36.723-11.168 42.473-21.124.561-.971.954-2.029 1.163-3.13 1.942-10.196 3.536-25.765 4.195-35.917.35-5.404 4.156-11.147 10.52-11.147 5.79 0 10.5 4.71 10.5 10.5z"/><path d="m133.002 278.322c5.522 0 10-4.477 10-10s-4.478-10-10-10h-.007c-5.522 0-9.996 4.477-9.996 10s4.48 10 10.003 10z"/><path d="m256.001 197.478c5.522 0 10-4.477 10-10v-24.601c0-5.523-4.478-10-10-10s-10 4.477-10 10v24.601c0 5.522 4.477 10 10 10z"/></g></g></svg>