<svg height="512" viewBox="0 0 64 64" width="512" xmlns="http://www.w3.org/2000/svg"><g id="Child-thermometer-fever-check-medical"><path d="m61 54a7 7 0 1 1 -11-5.74v-13.26a4 4 0 0 1 8 0v13.26a7 7 0 0 1 3 5.74z" fill="#bdfdff"/><path d="m61 54a7 7 0 0 1 -8.4 6.86q-.3-.06-.6-.15a7 7 0 0 0 2-12.45v-13.26a3.98 3.98 0 0 0 -2-3.46 3.994 3.994 0 0 1 6 3.46v13.26a7 7 0 0 1 3 5.74z" fill="#00e7f0"/><path d="m58 13v14h-6v-4-6-4z" fill="#e0e0e2"/><path d="m58 5v8h-8v-10h6a2.006 2.006 0 0 1 2 2z" fill="#e0e0e2"/><path d="m54 13h4v14h-4z" fill="#acabb1"/><path d="m58 5v8h-4v-8a2.006 2.006 0 0 0 -2-2h4a2.006 2.006 0 0 1 2 2z" fill="#acabb1"/><circle cx="54" cy="54" fill="#ff3051" r="2"/><path d="m52 17v6h-4l1-6z" fill="#ff7956"/><path d="m50 5v6h-2a2.006 2.006 0 0 1 -2-2v-2a2.006 2.006 0 0 1 2-2z" fill="#9cdd05"/><path d="m39 50v11h-36v-11a7 7 0 0 1 7-7h8a3 3 0 0 0 6 0h8a7 7 0 0 1 7 7z" fill="#9cdd05"/><path d="m39 50v11h-5v-11a7 7 0 0 0 -7-7h5a7 7 0 0 1 7 7z" fill="#5eac24"/><path d="m36 21.36a4 4 0 0 1 -3 6.64h-.04c.03-.33.04-.66.04-1v-7a4.025 4.025 0 0 1 2.83 1.17 1.537 1.537 0 0 1 .17.19z" fill="#ffa733"/><path d="m36 13v8.36a1.537 1.537 0 0 0 -.17-.19 4.025 4.025 0 0 0 -2.83-1.17v-3l-7-4-17 4v3a4.025 4.025 0 0 0 -2.83 1.17 1.537 1.537 0 0 0 -.17.19v-8.36a8 8 0 0 1 8-8h14a8 8 0 0 1 8 8z" fill="#ffcd00"/><path d="m36 13v8.36a1.537 1.537 0 0 0 -.17-.19 4.025 4.025 0 0 0 -2.83-1.17v-3l-1-.57v-3.43a8 8 0 0 0 -8-8h4a8 8 0 0 1 8 8z" fill="#ebbf00"/><path d="m33 20v7c0 .34-.01.67-.04 1a11.987 11.987 0 0 1 -8.96 10.62 12.032 12.032 0 0 1 -6 0 11.987 11.987 0 0 1 -8.96-10.62c-.03-.33-.04-.66-.04-1v-10l17-4 7 4z" fill="#ffc477"/><path d="m33 17v10c0 .34-.01.67-.04 1a11.987 11.987 0 0 1 -8.96 10.62 11.858 11.858 0 0 1 -3 .38 10.6 10.6 0 0 1 -1.5-.1 10.722 10.722 0 0 0 1.5-.28 11.987 11.987 0 0 0 8.96-10.62c.03-.33.04-.66.04-1v-10l-6.12-3.5 2.12-.5z" fill="#ffa733"/><path d="m24 38.62v4.38a3 3 0 0 1 -6 0v-4.38a12.032 12.032 0 0 0 6 0z" fill="#ffc477"/><path d="m9.04 28h-.04a4 4 0 0 1 -3-6.64 1.537 1.537 0 0 1 .17-.19 4.025 4.025 0 0 1 2.83-1.17v7c0 .34.01.67.04 1z" fill="#ffc477"/><path d="m14 23h4v2h-4z"/><path d="m24 23h4v2h-4z"/><path d="m26 32h-2c0 .249-1.064 1-3 1s-3-.751-3-1h-2c0 1.71 2.149 3 5 3s5-1.29 5-3z"/><path d="m56 2h-6a1 1 0 0 0 -1 1v1h-1a3.009 3.009 0 0 0 -3 3v2a3.009 3.009 0 0 0 3 3h1v1a1 1 0 0 0 1 1h1v2h-2a1 1 0 0 0 -.99.84l-1 6a1 1 0 0 0 .99 1.16h3v3a1 1 0 0 0 1 1h6a1 1 0 0 0 1-1v-22a3.009 3.009 0 0 0 -3-3zm-7 8h-1a1 1 0 0 1 -1-1v-2a1 1 0 0 1 1-1h1zm2 12h-1.82l.67-4h1.15zm6 4h-4v-12h4zm0-14h-6v-8h5a1 1 0 0 1 1 1z"/><path d="m39 7h4v2h-4z"/><path d="m40 1.764h2v4.472h-2z" transform="matrix(.447 -.894 .894 .447 19.087 38.883)"/><path d="m38.764 11h4.472v2h-4.472z" transform="matrix(.894 -.447 .447 .894 -1.038 19.603)"/><path d="m32 42h-7v-2.64a13.013 13.013 0 0 0 8.84-10.45 4.959 4.959 0 0 0 3.16-7.88v-8.03a9.014 9.014 0 0 0 -9-9h-14a9.014 9.014 0 0 0 -9 9v8.03a4.959 4.959 0 0 0 3.16 7.88 13.013 13.013 0 0 0 8.84 10.45v2.64h-7a8.011 8.011 0 0 0 -8 8v11a1 1 0 0 0 1 1h36a1 1 0 0 0 1-1v-11a8.011 8.011 0 0 0 -8-8zm4-18a2.994 2.994 0 0 1 -2 2.81v-5.63a3.179 3.179 0 0 1 1.12.69 3.013 3.013 0 0 1 .88 2.13zm-28 2.82a3 3 0 0 1 -1.13-4.94 3.1 3.1 0 0 1 1.13-.7zm0-9.82v2.1a4.886 4.886 0 0 0 -1 .33v-6.43a7.008 7.008 0 0 1 7-7h14a7.008 7.008 0 0 1 7 7v6.43a4.886 4.886 0 0 0 -1-.33v-2.1a1 1 0 0 0 -.5-.87l-7-4a1.026 1.026 0 0 0 -.73-.1l-17 4a1 1 0 0 0 -.77.97zm2 10v-9.21l15.85-3.73 6.15 3.52v9.42a11 11 0 0 1 -22 0zm13 12.83v3.17a2 2 0 0 1 -4 0v-3.17a13.161 13.161 0 0 0 2 .17 13.161 13.161 0 0 0 2-.17zm15 20.17h-6v-5h-2v5h-18v-5h-2v5h-6v-10a6 6 0 0 1 6-6h7.14a3.983 3.983 0 0 0 7.72 0h7.14a6 6 0 0 1 6 6z"/><path d="m59 47.76v-12.76a5 5 0 0 0 -10 0v12.76a7.992 7.992 0 0 0 3.41 14.08 7.632 7.632 0 0 0 1.58.16 8 8 0 0 0 5.01-14.24zm-1.19 10.87a6.03 6.03 0 0 1 -5.02 1.25 6 6 0 0 1 -2.22-10.8 1 1 0 0 0 .43-.82v-13.26a3 3 0 0 1 6 0v13.26a1 1 0 0 0 .43.82 5.992 5.992 0 0 1 .38 9.55z"/><path d="m55 51.18v-17.18h-2v17.18a3 3 0 1 0 2 0zm-1 3.82a1 1 0 1 1 1-1 1 1 0 0 1 -1 1z"/></g></svg>