<svg id="Filled_expand" height="512" viewBox="0 0 512 512" width="512" xmlns="http://www.w3.org/2000/svg" data-name="Filled expand"><g><g><path d="m24 488v-36.081a30 30 0 0 1 18.358-27.649l133.642-56.27h160l133.642 56.27a30 30 0 0 1 18.358 27.649v36.081z" fill="#79d8eb"/><path d="m336 368-80 72-80-72 32-72h96z" fill="#ffd4cf"/><path d="m351.416 312.292-95.416 47.708-95.416-47.708a30 30 0 0 1 -16.584-26.833v-149.459h224v149.459a30 30 0 0 1 -16.584 26.833z" fill="#dcf9fe"/><g><path d="m336 136h-160v113.4a30 30 0 0 0 12.118 24.088l43.918 32.6a30 30 0 0 0 17.882 5.912h12.082a30 30 0 0 0 18-6l44-33a30 30 0 0 0 12-24z" fill="#ffd4cf"/><path d="m176 240v9.4a30 30 0 0 0 12.118 24.088l43.918 32.6a30 30 0 0 0 17.882 5.912h12.082a30 30 0 0 0 18-6l44-33a30 30 0 0 0 12-24v-9l-80-24z" fill="#79d8eb"/></g></g><path d="m136 104h240v32h-240z" fill="#79d8eb"/><path d="m368 104h-224v-8l60.284-60.284a40 40 0 0 1 28.285-11.716h46.862a40 40 0 0 1 28.285 11.716l60.284 60.284z" fill="#dcf9fe"/><g><path d="m472.746 416.9-130.722-55.044-13.063-29.392 26.033-13.017a37.792 37.792 0 0 0 21.006-33.988v-101.459h-16v101.459a21.881 21.881 0 0 1 -12.162 19.678l-25.382 12.691-11.145-25.077-.766.34 18.255-13.691a38.182 38.182 0 0 0 15.2-30.4v-105h16v24h16v-24a8 8 0 0 0 8-8v-32a8 8 0 0 0 -8-8 8 8 0 0 0 -2.343-5.657l-60.284-60.284a47.686 47.686 0 0 0 -33.941-14.059h-46.864a47.686 47.686 0 0 0 -33.941 14.059l-60.284 60.284a8 8 0 0 0 -2.343 5.657 8 8 0 0 0 -8 8v32a8 8 0 0 0 8 8v141.459a37.792 37.792 0 0 0 21.006 33.988l26.033 13.017-13.063 29.392-77.076 32.456 6.2 14.746 75.32-31.714 76.224 68.6a8 8 0 0 0 10.7 0l76.224-68.6 128.961 54.3a21.951 21.951 0 0 1 13.471 20.275v28.081h-448v-28.081a21.951 21.951 0 0 1 13.463-20.275l37.637-15.85-6.2-14.746-37.646 15.852a37.921 37.921 0 0 0 -23.254 35.019v36.081a8 8 0 0 0 8 8h464a8 8 0 0 0 8-8v-36.081a37.921 37.921 0 0 0 -23.254-35.019zm-164.616-91.909-52.13 26.065-52.13-26.065 9.975-22.444 13.423 9.964a38.24 38.24 0 0 0 22.65 7.489h12.082a38.241 38.241 0 0 0 22.8-7.6l13.3-9.975zm11.07-58.391-44 33a22.135 22.135 0 0 1 -13.2 4.4h-12.082a22.142 22.142 0 0 1 -13.113-4.336l-43.918-32.6a22.088 22.088 0 0 1 -8.887-17.664v-3.444l64-19.2v45.244h16v-45.248l64 19.2v3.048a22.106 22.106 0 0 1 -8.8 17.6zm8.8-37.353-69.7-20.91a8.016 8.016 0 0 0 -4.6 0l-69.7 20.91v-85.247h144zm-184-101.247v-16h224v16zm65.941-86.627a31.787 31.787 0 0 1 22.627-9.373h15.432v48h16v-48h15.432a31.787 31.787 0 0 1 22.627 9.373l54.628 54.627h-201.374zm-45.779 263.764a21.881 21.881 0 0 1 -12.162-19.678v-141.459h16v105.4a38.158 38.158 0 0 0 15.35 30.513l17.329 12.864-11.135 25.054zm91.838 124.1-70.33-63.3 11.7-26.313 55.057 27.528a8 8 0 0 0 7.156 0l55.057-27.528 11.69 26.316z"/><path d="m288 168h16v24h-16z"/><path d="m208 168h16v24h-16z"/></g></g></svg>